{
  "accessors": [
    {
      "name": "Body1_1_0_positions",
      "componentType": 5126,
      "count": 752,
      "min": [
        -41,
        -40.996761322021484,
        -30.5
      ],
      "max": [
        40.98705291748047,
        40.996761322021484,
        25
      ],
      "type": "VEC3",
      "bufferView": 0,
      "byteOffset": 0
    },
    {
      "name": "Body1_1_0_normals",
      "componentType": 5126,
      "count": 752,
      "min": [
        -1,
        -1,
        0
      ],
      "max": [
        1,
        1,
        1
      ],
      "type": "VEC3",
      "bufferView": 1,
      "byteOffset": 0
    },
    {
      "name": "Body1_1_0_texcoords",
      "componentType": 5126,
      "count": 752,
      "min": [
        -2.5,
        -11.88053035736084
      ],
      "max": [
        2.5,
        13.88053035736084
      ],
      "type": "VEC2",
      "bufferView": 2,
      "byteOffset": 0
    },
    {
      "name": "Body1_1_0_indices",
      "componentType": 5123,
      "count": 2232,
      "min": [
        0
      ],
      "max": [
        751
      ],
      "type": "SCALAR",
      "bufferView": 3,
      "byteOffset": 0
    },
    {
      "name": "Body1_1_1_positions",
      "componentType": 5126,
      "count": 2500,
      "min": [
        -43.5,
        -43.49677658081055,
        -30.5
      ],
      "max": [
        43.48710250854492,
        43.49677658081055,
        9
      ],
      "type": "VEC3",
      "bufferView": 0,
      "byteOffset": 9024
    },
    {
      "name": "Body1_1_1_normals",
      "componentType": 5126,
      "count": 2500,
      "min": [
        -1,
        -0.9999257922172546,
        -1
      ],
      "max": [
        0.9997034668922424,
        0.9999257922172546,
        1
      ],
      "type": "VEC3",
      "bufferView": 1,
      "byteOffset": 9024
    },
    {
      "name": "Body1_1_1_texcoords",
      "componentType": 5126,
      "count": 2500,
      "min": [
        -4.25,
        -12.66592788696289
      ],
      "max": [
        4.25,
        14.66592788696289
      ],
      "type": "VEC2",
      "bufferView": 2,
      "byteOffset": 6016
    },
    {
      "name": "Body1_1_1_indices",
      "componentType": 5123,
      "count": 7458,
      "min": [
        0
      ],
      "max": [
        2499
      ],
      "type": "SCALAR",
      "bufferView": 3,
      "byteOffset": 4464
    },
    {
      "name": "Body2_1_0_positions",
      "componentType": 5126,
      "count": 1861,
      "min": [
        -41.98714828491211,
        -41.996788024902344,
        -44
      ],
      "max": [
        42,
        41.996788024902344,
        -39
      ],
      "type": "VEC3",
      "bufferView": 0,
      "byteOffset": 39024
    },
    {
      "name": "Body2_1_0_normals",
      "componentType": 5126,
      "count": 1861,
      "min": [
        -0.9459477066993713,
        -0.9458376169204712,
        -1
      ],
      "max": [
        0.9455076456069946,
        0.9458376169204712,
        -0.32431894540786743
      ],
      "type": "VEC3",
      "bufferView": 1,
      "byteOffset": 39024
    },
    {
      "name": "Body2_1_0_texcoords",
      "componentType": 5126,
      "count": 1861,
      "min": [
        -0.72154301404953,
        -9.995573997497559
      ],
      "max": [
        1.1623890399932861,
        11.995573997497559
      ],
      "type": "VEC2",
      "bufferView": 2,
      "byteOffset": 26016
    },
    {
      "name": "Body2_1_0_indices",
      "componentType": 5123,
      "count": 8697,
      "min": [
        0
      ],
      "max": [
        1860
      ],
      "type": "SCALAR",
      "bufferView": 3,
      "byteOffset": 19380
    },
    {
      "name": "Body2_1_1_positions",
      "componentType": 5126,
      "count": 2228,
      "min": [
        -41.98714828491211,
        -41.996788024902344,
        -42.8089714050293
      ],
      "max": [
        42,
        41.996788024902344,
        -35.5
      ],
      "type": "VEC3",
      "bufferView": 0,
      "byteOffset": 61356
    },
    {
      "name": "Body2_1_1_normals",
      "componentType": 5126,
      "count": 2228,
      "min": [
        -1,
        -1,
        -1
      ],
      "max": [
        1,
        1,
        1
      ],
      "type": "VEC3",
      "bufferView": 1,
      "byteOffset": 61356
    },
    {
      "name": "Body2_1_1_texcoords",
      "componentType": 5126,
      "count": 2228,
      "min": [
        -4.1987152099609375,
        -12.19468879699707
      ],
      "max": [
        4.199999809265137,
        14.19468879699707
      ],
      "type": "VEC2",
      "bufferView": 2,
      "byteOffset": 40904
    },
    {
      "name": "Body2_1_1_indices",
      "componentType": 5123,
      "count": 8037,
      "min": [
        0
      ],
      "max": [
        2227
      ],
      "type": "SCALAR",
      "bufferView": 3,
      "byteOffset": 36776
    },
    {
      "name": "Body9_1_0_positions",
      "componentType": 5126,
      "count": 3895,
      "min": [
        -163.17791748046875,
        -164,
        -82.88202667236328
      ],
      "max": [
        163.17791748046875,
        45.02882766723633,
        -30.5
      ],
      "type": "VEC3",
      "bufferView": 0,
      "byteOffset": 88092
    },
    {
      "name": "Body9_1_0_normals",
      "componentType": 5126,
      "count": 3895,
      "min": [
        -0.9999669790267944,
        -1,
        -1
      ],
      "max": [
        0.9999490976333618,
        0.9999972581863403,
        1
      ],
      "type": "VEC3",
      "bufferView": 1,
      "byteOffset": 88092
    },
    {
      "name": "Body9_1_0_texcoords",
      "componentType": 5126,
      "count": 3895,
      "min": [
        -12.364383697509766,
        -48.879356384277344
      ],
      "max": [
        9.243265151977539,
        34.19401931762695
      ],
      "type": "VEC2",
      "bufferView": 2,
      "byteOffset": 58728
    },
    {
      "name": "Body9_1_0_indices",
      "componentType": 5123,
      "count": 11784,
      "min": [
        0
      ],
      "max": [
        3894
      ],
      "type": "SCALAR",
      "bufferView": 3,
      "byteOffset": 52852
    },
    {
      "name": "Body10_1_0_positions",
      "componentType": 5126,
      "count": 40720,
      "min": [
        -184,
        -184,
        -102.88201141357422
      ],
      "max": [
        184,
        183.9177703857422,
        -53.51688766479492
      ],
      "type": "VEC3",
      "bufferView": 0,
      "byteOffset": 134832
    },
    {
      "name": "Body10_1_0_normals",
      "componentType": 5126,
      "count": 40720,
      "min": [
        -1,
        -1,
        -0.9999993443489075
      ],
      "max": [
        1,
        1,
        0.9999993443489075
      ],
      "type": "VEC3",
      "bufferView": 1,
      "byteOffset": 134832
    },
    {
      "name": "Body10_1_0_texcoords",
      "componentType": 5126,
      "count": 40720,
      "min": [
        -9.626222610473633,
        -57.0074348449707
      ],
      "max": [
        11.699567794799805,
        59.01406478881836
      ],
      "type": "VEC2",
      "bufferView": 2,
      "byteOffset": 89888
    },
    {
      "name": "Body10_1_0_indices",
      "componentType": 5123,
      "count": 222054,
      "min": [
        0
      ],
      "max": [
        40719
      ],
      "type": "SCALAR",
      "bufferView": 3,
      "byteOffset": 76420
    },
    {
      "name": "Body10_1_1_positions",
      "componentType": 5126,
      "count": 416,
      "min": [
        -5.5003581047058105,
        151.90045166015625,
        -102.88201141357422
      ],
      "max": [
        5.5003581047058105,
        183.98660278320312,
        -70.88203430175781
      ],
      "type": "VEC3",
      "bufferView": 0,
      "byteOffset": 623472
    },
    {
      "name": "Body10_1_1_normals",
      "componentType": 5126,
      "count": 416,
      "min": [
        -0.036189816892147064,
        -0.999927282333374,
        -0.9999994039535522
      ],
      "max": [
        0.036189816892147064,
        0.999927282333374,
        0.9999994039535522
      ],
      "type": "VEC3",
      "bufferView": 1,
      "byteOffset": 623472
    },
    {
      "name": "Body10_1_1_texcoords",
      "componentType": 5126,
      "count": 416,
      "min": [
        -5.026547908782959,
        -28.56863021850586
      ],
      "max": [
        5.026547908782959,
        -27.23667335510254
      ],
      "type": "VEC2",
      "bufferView": 2,
      "byteOffset": 415648
    },
    {
      "name": "Body10_1_1_indices",
      "componentType": 5123,
      "count": 1704,
      "min": [
        0
      ],
      "max": [
        415
      ],
      "type": "SCALAR",
      "bufferView": 3,
      "byteOffset": 520528
    }
  ],
  "asset": {
    "generator": "obj2gltf",
    "version": "2.0"
  },
  "buffers": [
    {
      "name": "NRGWheel v1",
      "byteLength": 2199840,
      "uri": "data:application/octet-stream;base64,"
    }
  ],
  "bufferViews": [
    {
      "name": "bufferView_0",
      "buffer": 0,
      "byteLength": 628464,
      "byteOffset": 0,
      "byteStride": 12,
      "target": 34962
    },
    {
      "name": "bufferView_1",
      "buffer": 0,
      "byteLength": 628464,
      "byteOffset": 628464,
      "byteStride": 12,
      "target": 34962
    },
    {
      "name": "bufferView_2",
      "buffer": 0,
      "byteLength": 418976,
      "byteOffset": 1256928,
      "byteStride": 8,
      "target": 34962
    },
    {
      "name": "bufferView_3",
      "buffer": 0,
      "byteLength": 523936,
      "byteOffset": 1675904,
      "target": 34963
    }
  ],
  "materials": [
    {
      "name": "Steel_-_Satin_(1)",
      "pbrMetallicRoughness": {
        "baseColorFactor": [
          0,
          0,
          0,
          1
        ],
        "metallicFactor": 0,
        "roughnessFactor": 1
      },
      "emissiveFactor": [
        0,
        0,
        0
      ],
      "alphaMode": "OPAQUE",
      "doubleSided": false
    },
    {
      "name": "Steel_-_Satin",
      "pbrMetallicRoughness": {
        "baseColorFactor": [
          0.776471,
          0.239216,
          0.239216,
          1
        ],
        "metallicFactor": 0,
        "roughnessFactor": 1
      },
      "emissiveFactor": [
        0,
        0,
        0
      ],
      "alphaMode": "OPAQUE",
      "doubleSided": false
    },
    {
      "name": "Steel_-_Satin_(1)_(1)",
      "pbrMetallicRoughness": {
        "baseColorFactor": [
          1,
          0.819608,
          0.011765,
          1
        ],
        "metallicFactor": 0,
        "roughnessFactor": 1
      },
      "emissiveFactor": [
        0,
        0,
        0
      ],
      "alphaMode": "OPAQUE",
      "doubleSided": false
    }
  ],
  "meshes": [
    {
      "name": "Body1_1",
      "primitives": [
        {
          "attributes": {
            "POSITION": 0,
            "NORMAL": 1,
            "TEXCOORD_0": 2
          },
          "indices": 3,
          "material": 0,
          "mode": 4
        },
        {
          "attributes": {
            "POSITION": 4,
            "NORMAL": 5,
            "TEXCOORD_0": 6
          },
          "indices": 7,
          "material": 1,
          "mode": 4
        }
      ]
    },
    {
      "name": "Body2_1",
      "primitives": [
        {
          "attributes": {
            "POSITION": 8,
            "NORMAL": 9,
            "TEXCOORD_0": 10
          },
          "indices": 11,
          "material": 1,
          "mode": 4
        },
        {
          "attributes": {
            "POSITION": 12,
            "NORMAL": 13,
            "TEXCOORD_0": 14
          },
          "indices": 15,
          "material": 0,
          "mode": 4
        }
      ]
    },
    {
      "name": "Body9_1",
      "primitives": [
        {
          "attributes": {
            "POSITION": 16,
            "NORMAL": 17,
            "TEXCOORD_0": 18
          },
          "indices": 19,
          "material": 1,
          "mode": 4
        }
      ]
    },
    {
      "name": "Body10_1",
      "primitives": [
        {
          "attributes": {
            "POSITION": 20,
            "NORMAL": 21,
            "TEXCOORD_0": 22
          },
          "indices": 23,
          "material": 0,
          "mode": 4
        },
        {
          "attributes": {
            "POSITION": 24,
            "NORMAL": 25,
            "TEXCOORD_0": 26
          },
          "indices": 27,
          "material": 2,
          "mode": 4
        }
      ]
    }
  ],
  "nodes": [
    {
      "name": "Body1",
      "mesh": 0
    },
    {
      "name": "Body2",
      "mesh": 1
    },
    {
      "name": "Body9",
      "mesh": 2
    },
    {
      "name": "Body10",
      "mesh": 3
    }
  ],
  "scene": 0,
  "scenes": [
    {
      "nodes": [
        0,
        1,
        2,
        3
      ]
    }
  ]
}
